HIERARCHY
ROOT Hips
{
	OFFSET -3.958830 18.904000 13.208200
	CHANNELS 6 Xposition Yposition Zposition Zrotation Yrotation Xrotation 
	JOINT LHipJoint
	{
		OFFSET 0.000000 0.000000 0.000000
		CHANNELS 3 Zrotation Yrotation Xrotation
		JOINT LeftUpLeg
		{
			OFFSET 1.800000 -1.400000 0.085000
			CHANNELS 3 Zrotation Yrotation Xrotation
			JOINT LeftLeg
			{
				OFFSET 2.215000 -6.000000 0.000000
				CHANNELS 3 Zrotation Yrotation Xrotation
				JOINT LeftFoot
				{
					OFFSET 2.500000 -6.900000 0.000000
					CHANNELS 3 Zrotation Yrotation Xrotation
					JOINT LeftToeBase
					{
						OFFSET 0.200000 -0.500000 1.950000
						CHANNELS 3 Zrotation Yrotation Xrotation
						End Site
						{
							OFFSET 0.000000 0.000000 0.000000
						}
					}
				}
			}
		}
	}
	JOINT RHipJoint
	{
		OFFSET 0.000000 0.000000 0.000000
		CHANNELS 3 Zrotation Yrotation Xrotation
		JOINT RightUpLeg
		{
			OFFSET -1.800000 -1.400000 0.085000
			CHANNELS 3 Zrotation Yrotation Xrotation
			JOINT RightLeg
			{
				OFFSET -2.215000 -6.000000 0.000000
				CHANNELS 3 Zrotation Yrotation Xrotation
				JOINT RightFoot
				{
					OFFSET -2.500000 -6.900000 0.000000
					CHANNELS 3 Zrotation Yrotation Xrotation
					JOINT RightToeBase
					{
						OFFSET -0.200000 -0.500000 1.950000
						CHANNELS 3 Zrotation Yrotation Xrotation
						End Site
						{
							OFFSET 0.000000 0.000000 0.000000
						}
					}
				}
			}
		}
	}
	JOINT LowerBack
	{
		OFFSET 0.000000 0.000000 0.000000
		CHANNELS 3 Zrotation Yrotation Xrotation
		JOINT Spine
		{
			OFFSET -0.087000 1.940000 -0.288900
			CHANNELS 3 Zrotation Yrotation Xrotation
			JOINT Spine1
			{
				OFFSET 0.000000 1.950000 0.060000
				CHANNELS 3 Zrotation Yrotation Xrotation
				JOINT Neck
				{
					OFFSET 0.000000 0.000000 0.000000
					CHANNELS 3 Zrotation Yrotation Xrotation
					JOINT Neck1
					{
						OFFSET 0.000000 1.600000 0.340000
						CHANNELS 3 Zrotation Yrotation Xrotation
						JOINT Head
						{
							OFFSET 0.000000 1.667000 -0.240000
							CHANNELS 3 Zrotation Yrotation Xrotation
							End Site
							{
								OFFSET 0.000000 0.000000 0.000000
							}
						}
					}
				}
				JOINT LeftShoulder
				{
					OFFSET 0.000000 0.000000 0.000000
					CHANNELS 3 Zrotation Yrotation Xrotation
					JOINT LeftArm
					{
						OFFSET 2.700000 1.550000 -0.730000
						CHANNELS 3 Zrotation Yrotation Xrotation
						JOINT LeftForeArm
						{
							OFFSET 5.450000 0.000000 0.000000
							CHANNELS 3 Zrotation Yrotation Xrotation
							JOINT LeftHand
							{
								OFFSET 3.450000 0.000000 0.000000
								CHANNELS 3 Zrotation Yrotation Xrotation
								JOINT LeftHandIndex1
								{
									OFFSET 0.750000 0.000000 0.000000
									CHANNELS 3 Zrotation Yrotation Xrotation
									End Site
									{
										OFFSET 0.000000 0.000000 0.000000
									}
								}
							}
						}
					}
				}
				JOINT RightShoulder
				{
					OFFSET 0.000000 0.000000 0.000000
					CHANNELS 3 Zrotation Yrotation Xrotation
					JOINT RightArm
					{
						OFFSET -2.700000 1.550000 -0.730000
						CHANNELS 3 Zrotation Yrotation Xrotation
						JOINT RightForeArm
						{
							OFFSET -5.450000 0.000000 0.000000
							CHANNELS 3 Zrotation Yrotation Xrotation
							JOINT RightHand
							{
								OFFSET -3.450000 0.000000 0.000000
								CHANNELS 3 Zrotation Yrotation Xrotation
								JOINT RightHandIndex1
								{
									OFFSET -0.750000 0.000000 0.000000
									CHANNELS 3 Zrotation Yrotation Xrotation
									End Site
									{
										OFFSET 0.000000 0.000000 0.000000
									}
								}
							}
						}
					}
				}
			}
		}
	}
}
MOTION
Frames: 6
Frame Time: 0.016667
-0.090000 17.490820 6.120930 0.367798 35.037353 -3.830242 -14.668430 12.200827 2.512887 11.235843 -0.874772 4.157158 -10.209939 6.921154 9.517287 0.108593 4.953555 2.905900 0.378730 0.194040 0.273760 18.769211 -11.439138 3.158143 -7.734524 -0.742427 -15.722508 6.463032 -2.998458 -1.570301 -0.263022 -2.908132 3.400984 0.058960 -0.119720 -0.059380 -6.237932 1.457829 -8.153837 25.376923 -7.056253 16.340051 -14.926665 -1.439385 3.863670 -7.073115 3.881844 -12.844472 1.875697 -11.266326 48.125619 8.575880 -12.863230 -6.434610 0.993063 -19.265494 5.710076 -21.650239 -21.628275 -3.920641 32.167128 -34.131681 -10.564722 -3.195130 2.839876 0.440150 -0.211560 0.062750 0.063220 11.423264 13.064120 8.257632 80.750370 -4.113474 -11.309810 -10.107897 4.493428 -0.037455 2.597552 -1.347328 -0.047670 0.075370 -0.128070 -0.129260 
-0.074260 17.492410 5.966300 1.371502 36.098203 -3.383166 -14.729730 12.206791 2.771702 11.152068 -1.059803 4.548269 -12.792901 7.008491 7.375730 0.178493 5.140073 2.844111 0.387040 0.201510 0.299900 18.705535 -11.339478 2.954673 -8.847321 -1.326605 -17.218001 5.519360 -3.109895 -0.065433 -0.234102 -2.743457 3.444673 0.052030 -0.149520 -0.063350 -6.087698 1.042426 -8.189463 23.794835 -7.788072 16.745310 -15.296882 -2.491204 4.596183 -5.740382 4.010954 -13.324591 1.541017 -11.145216 48.382582 8.260110 -12.756250 -7.137270 -1.245361 -20.948143 6.060186 -21.020702 -20.620385 -5.799753 37.726004 -38.164559 -14.029537 -3.143830 2.772948 0.460020 -0.229260 0.086090 0.056310 10.954323 14.234656 8.644595 81.957159 -4.148343 -12.127625 -9.164688 4.816710 -0.091785 2.598661 -1.323783 -0.042080 0.073450 -0.141350 -0.141480 
-0.055270 17.489720 5.810060 2.177270 36.980167 -3.086085 -14.793380 12.200286 3.063723 11.051889 -1.373355 4.977297 -15.487248 6.920331 5.029473 0.252838 5.360067 2.770441 0.390990 0.203750 0.325250 18.643693 -11.257847 2.724265 -9.661295 -1.997701 -18.691080 4.263065 -3.236492 1.712956 -0.204870 -2.578816 3.482518 0.046590 -0.174640 -0.062340 -5.919430 0.656894 -8.229671 22.402738 -8.581660 17.267327 -15.707668 -3.465051 5.391721 -4.513415 4.371428 -13.864672 1.777801 -11.110815 48.257317 7.787250 -12.380830 -7.796960 -2.971384 -22.719273 6.510731 -20.836618 -19.896383 -7.407324 43.594886 -41.155156 -17.868783 -3.124092 2.708083 0.478500 -0.240700 0.106890 0.046430 10.152368 15.377788 8.970704 83.239823 -4.014605 -12.845309 -8.079466 4.774280 -0.058894 2.602183 -1.306690 -0.040700 0.069850 -0.149570 -0.155560 
-0.034600 17.479610 5.662420 3.144496 37.706140 -2.369999 -14.865962 12.301428 3.316530 10.602700 -1.668797 5.111528 -17.297199 6.718160 3.337838 0.307845 5.517207 2.724138 0.370660 0.167830 0.326980 18.564995 -11.156901 2.527169 -10.455246 -2.706263 -20.664475 2.863904 -3.316375 3.369426 -0.158127 -2.410482 3.525781 0.021600 -0.178700 -0.053170 -5.700315 0.091797 -8.265339 20.702952 -9.280714 17.821223 -15.857615 -4.636393 5.120091 -3.500770 4.520130 -14.225744 1.353135 -10.813466 48.005812 7.088450 -12.111830 -7.341620 -4.966067 -23.389333 6.672978 -21.549514 -19.746477 -8.188351 49.029512 -43.941879 -21.725189 -3.140635 2.639241 0.487800 -0.234140 0.106130 0.037760 10.050984 15.492512 9.181192 84.015062 -5.220968 -14.279822 -7.419748 6.016374 -0.348594 2.589118 -1.281934 -0.045750 0.055390 -0.142460 -0.168010 
-0.009730 17.461610 5.514910 3.835637 37.980038 -1.762995 -14.930709 12.356361 3.575711 10.072708 -1.968437 5.511461 -18.994250 6.299183 1.060981 0.372697 5.665625 2.685272 0.359640 0.140150 0.340960 18.512260 -11.045665 2.321788 -10.927846 -3.443846 -22.668597 1.528260 -3.424283 5.150716 -0.122605 -2.271151 3.553152 0.002580 -0.189250 -0.042980 -5.494133 -0.417594 -8.291005 19.614530 -10.118913 18.144163 -16.592211 -5.766185 5.106259 -2.343116 4.580710 -14.513339 0.848739 -10.504591 47.290969 5.988500 -11.603830 -7.009150 -6.364719 -23.775952 6.867139 -22.352517 -19.819555 -8.727679 55.151464 -45.704807 -25.919215 -3.176623 2.579705 0.493300 -0.229910 0.107170 0.030540 9.069079 15.478186 9.314154 85.339973 -5.963960 -15.624220 -6.727983 7.031109 -0.593178 2.583431 -1.273997 -0.048270 0.037010 -0.143740 -0.182050 
0.015160 17.449350 5.361850 4.138806 37.981081 -1.620701 -14.986457 12.386642 3.832967 9.614151 -2.323825 6.062130 -20.676090 5.801003 -1.231235 0.448801 5.834942 2.637277 0.343460 0.118510 0.344410 18.479977 -10.950316 2.097604 -10.831652 -4.163703 -24.406140 0.090527 -3.564677 7.220126 -0.095608 -2.159883 3.573594 -0.014180 -0.192640 -0.037380 -5.320086 -0.864781 -8.301938 19.015689 -11.223426 18.594954 -17.546346 -6.938460 5.572698 -1.199606 4.390636 -14.860773 -0.033820 -9.866560 46.657727 5.331850 -10.953500 -7.033000 -7.695075 -24.322451 7.186647 -23.104074 -19.814308 -9.423331 62.381143 -46.387977 -30.741654 -3.250583 2.526452 0.495360 -0.226470 0.108610 0.020850 8.056870 15.828913 9.522686 85.938441 -6.301677 -16.692596 -5.395586 7.998210 -0.799555 2.575719 -1.259624 -0.050180 0.028050 -0.138830 -0.188920 
